<svg width="151" height="23" viewBox="0 0 151 23" fill="none" xmlns="http://www.w3.org/2000/svg">
<g clip-path="url(#clip0_7:1370)">
<path d="M13.2123 11.088C15.4353 10.5124 16.6432 8.91333 16.6432 6.48654C16.6432 3.13041 14.3127 0.639648 9.81472 0.639648H0V23.0038H9.65911C14.6906 23.0038 17.399 20.2873 17.399 16.5474C17.399 13.8647 15.98 11.7879 13.2123 11.088ZM5.28713 4.95144H8.62169C10.4149 4.95144 11.356 5.94474 11.356 7.50993C11.356 8.97729 10.5076 10.0007 8.68468 10.0007H5.28713V4.95144ZM8.68468 18.7861H5.28713V13.3229H8.87363C10.8855 13.3229 11.8933 14.4517 11.8933 16.0394C11.8933 17.6987 10.8558 18.7861 8.68468 18.7861Z" fill="black"/>
<path d="M57.0949 7.54002C57.0949 3.25833 54.0456 0.639648 49.2624 0.639648H39.5625V23.0038H44.8459V13.5788L51.3594 23.0038H57.684L51.1371 13.9739C55.0497 13.5148 57.0949 10.9902 57.0949 7.54002ZM47.8767 11.1257H44.857V5.14333H48.2546C50.3331 5.14333 51.4335 6.20058 51.4335 8.05171C51.4187 9.96681 50.2368 11.1257 47.8767 11.1257Z" fill="black"/>
<path d="M72.975 11.088C75.1795 10.5124 76.4059 8.91333 76.4059 6.48654C76.4059 3.13041 74.0791 0.639648 69.5774 0.639648H59.7627V23.0038H69.4218C74.457 23.0038 77.1617 20.2873 77.1617 16.5474C77.1617 13.8647 75.7464 11.7879 72.975 11.088ZM65.0498 4.95144H68.3844C70.1776 4.95144 71.1224 5.94474 71.1224 7.50993C71.1224 8.97729 70.2703 10.0007 68.4474 10.0007H65.0498V4.95144ZM68.4622 18.7861H65.0646V13.3229H68.6512C70.663 13.3229 71.6708 14.4517 71.6708 16.0394C71.656 17.6987 70.6185 18.7861 68.4622 18.7861Z" fill="black"/>
<path d="M84.3713 13.575H91.0478V9.42502H84.3713V5.62116H93.9674V0.639648H79.0879V23H94.0934V18.0147H84.3713V13.575Z" fill="black"/>
<path d="M95.7354 5.62116H101.934V23H107.188V5.62116H113.449V0.639648H95.7354V5.62116Z" fill="black"/>
<path d="M132.805 0.639648H115.091V5.62116H121.289V23H126.543V5.62116H132.805V0.639648Z" fill="black"/>
<path d="M16.8066 23H22.2716L24.3316 18.5302H30.5339L32.6087 23H38.0811L27.4068 0L16.8066 23ZM28.6073 14.3764H26.2434L27.4217 11.8217L28.6073 14.3764Z" fill="black"/>
<path d="M145.528 23H150.993L140.341 0L129.748 23H135.213L137.273 18.5302H143.475L145.528 23ZM139.163 14.3764L140.341 11.8217L141.526 14.3764H139.163Z" fill="black"/>
</g>
<defs>
<clipPath id="clip0_7:1370">
<rect width="151" height="23" fill="white"/>
</clipPath>
</defs>
</svg>
