<svg width="18" height="18" viewBox="0 0 18 18" fill="none" xmlns="http://www.w3.org/2000/svg">
<path fill-rule="evenodd" clip-rule="evenodd" d="M15.3775 2.61566C14.5454 1.78319 13.5569 1.12352 12.4689 0.674619C11.3808 0.22572 10.2148 -0.00353829 9.03775 4.12792e-05C4.09821 4.12792e-05 0.0771427 4.00101 0.0751338 8.91966C0.0729486 10.4859 0.485796 12.0247 1.27165 13.3795L0 18L4.75111 16.7597C6.06624 17.4721 7.53842 17.845 9.03414 17.8445H9.03775C13.9769 17.8445 17.9976 13.8431 18 8.92489C18.003 7.7519 17.7727 6.59003 17.3224 5.50688C16.8722 4.42373 16.2111 3.44093 15.3775 2.61566V2.61566ZM9.03775 16.339H9.03454C7.70117 16.3394 6.39204 15.9826 5.2433 15.3056L4.97129 15.1449L2.15196 15.881L2.9045 13.1452L2.72732 12.864C1.98176 11.6836 1.58675 10.3158 1.58826 8.91966C1.58826 4.83231 4.93151 1.50673 9.04057 1.50673C11.0117 1.50321 12.9036 2.2828 14.3 3.67401C15.6964 5.06522 16.483 6.95414 16.4868 8.92529C16.4852 13.013 13.1436 16.339 9.03775 16.339V16.339ZM13.1235 10.7868C12.8997 10.6751 11.7976 10.1359 11.5935 10.0615C11.3894 9.98721 11.2387 9.94984 11.0897 10.1732C10.9406 10.3966 10.5111 10.8964 10.3805 11.0471C10.2499 11.1978 10.1194 11.2143 9.89556 11.1026C9.67177 10.9909 8.94976 10.7558 8.09436 9.99645C7.4286 9.40542 6.97941 8.67578 6.84883 8.45279C6.71825 8.2298 6.83477 8.10886 6.94686 7.99797C7.04771 7.89792 7.17066 7.73761 7.28276 7.60743C7.39485 7.47726 7.43222 7.38404 7.50655 7.23538C7.58088 7.08672 7.54392 6.95654 7.48807 6.84525C7.43222 6.73395 6.98423 5.63668 6.7978 5.1903C6.61579 4.75557 6.43137 4.81463 6.29396 4.8078C6.16338 4.80137 6.01271 4.79976 5.86446 4.79976C5.75112 4.80271 5.6396 4.829 5.53687 4.87697C5.43415 4.92495 5.34242 4.99359 5.2674 5.0786C5.06209 5.30199 4.48352 5.84199 4.48352 6.93806C4.48352 8.03413 5.28709 9.09484 5.39798 9.2435C5.50888 9.39216 6.977 11.6434 9.22338 12.6089C9.64051 12.7875 10.0667 12.9441 10.5003 13.0781C11.0366 13.2477 11.5248 13.224 11.9105 13.1665C12.3408 13.1026 13.2364 12.6273 13.4224 12.1066C13.6085 11.5859 13.6089 11.1399 13.553 11.0471C13.4972 10.9543 13.3477 10.8981 13.1235 10.7868V10.7868Z" fill="black"/>
</svg>
